<svg xmlns="http://www.w3.org/2000/svg" viewBox="0 0 322.7 119.29"><defs><style>.cls-1{isolation:isolate;}.cls-2{fill:#dc2991;}.cls-3{fill:#6a2990;}.cls-3,.cls-4,.cls-5{mix-blend-mode:multiply;}.cls-4{fill:#0860a8;}.cls-5{fill:#67b2d3;}</style></defs><g class="cls-1"><g id="Layer_2" data-name="Layer 2"><g id="Layer_1-2" data-name="Layer 1"><path d="M84.8,44.79H77.32a13.11,13.11,0,0,1-.26-2.63,12.68,12.68,0,0,1,.26-2.55H98.43a12.68,12.68,0,0,1,.26,2.55,13.11,13.11,0,0,1-.26,2.63H91V69.68l-1.51.14c-.5,0-1,.07-1.46.07s-1,0-1.53,0a15.86,15.86,0,0,1-1.65-.16Z"/><path d="M98.69,48.06a10.85,10.85,0,0,1,1.19-.19,11.51,11.51,0,0,1,1.23-.06,8.29,8.29,0,0,1,1.23.08,12,12,0,0,1,1.2.21,2.6,2.6,0,0,1,.23.6q.11.4.18.84c.06.29.11.59.15.88s.08.54.11.73a10.73,10.73,0,0,1,2.25-2.32,5.38,5.38,0,0,1,3.35-1c.28,0,.6,0,1,0a4.14,4.14,0,0,1,.79.12,7.71,7.71,0,0,1,.13,1c0,.37,0,.74,0,1.13s0,1-.06,1.55a11.06,11.06,0,0,1-.23,1.59,5.41,5.41,0,0,0-1-.08h-.7a9.32,9.32,0,0,0-1.58.14,3.68,3.68,0,0,0-1.68.78,4.41,4.41,0,0,0-1.31,1.88,9.31,9.31,0,0,0-.53,3.51V69.72c-.5.08-1,.14-1.5.17s-1,0-1.47,0-1,0-1.44,0-1-.09-1.52-.17Z"/><path d="M125.66,55.46a3.37,3.37,0,0,0-.34-1.63,2.51,2.51,0,0,0-.92-1,4.07,4.07,0,0,0-1.44-.48,13.81,13.81,0,0,0-1.9-.12,14.67,14.67,0,0,0-4.81.88,11.18,11.18,0,0,1-.88-2,8.15,8.15,0,0,1-.29-2.3,23,23,0,0,1,7.11-1.22,10.09,10.09,0,0,1,6.79,2.1q2.45,2.09,2.45,6.69V68.88a34.3,34.3,0,0,1-3.56.88,24.07,24.07,0,0,1-4.72.42,18.93,18.93,0,0,1-3.91-.38,8.41,8.41,0,0,1-3-1.25,6,6,0,0,1-2-2.26,7.53,7.53,0,0,1-.69-3.39,6.17,6.17,0,0,1,.86-3.36,6.58,6.58,0,0,1,2.21-2.18,10,10,0,0,1,3-1.17,15.81,15.81,0,0,1,3.34-.36c.81,0,1.7.05,2.68.13Zm0,4.3c-.34,0-.7-.1-1.09-.14a10.37,10.37,0,0,0-1-.06,6.19,6.19,0,0,0-3.25.73,2.56,2.56,0,0,0-1.19,2.36,2.62,2.62,0,0,0,.46,1.67,2.79,2.79,0,0,0,1.11.86,4.5,4.5,0,0,0,1.38.33,12.57,12.57,0,0,0,1.28.07,7.64,7.64,0,0,0,1.25-.11l1.09-.18Z"/><path d="M133.35,48.1a12.26,12.26,0,0,1,1.86-.25c.58,0,1.07,0,1.49,0s1.11,0,1.67,0a8.17,8.17,0,0,1,1.55.21l4.72,16.1,4.65-16.1a13.34,13.34,0,0,1,1.5-.19q.79-.06,1.59-.06c.42,0,.9,0,1.44,0a13,13,0,0,1,1.86.25l-8.19,21.58a14.52,14.52,0,0,1-1.68.16c-.58,0-1.07,0-1.46,0s-.89,0-1.42,0a7.33,7.33,0,0,1-1.51-.21Z"/><path d="M169.4,55.46a3.37,3.37,0,0,0-.34-1.63,2.44,2.44,0,0,0-.92-1,4.07,4.07,0,0,0-1.44-.48,13.71,13.71,0,0,0-1.9-.12,14.67,14.67,0,0,0-4.81.88,11.92,11.92,0,0,1-.88-2,8.15,8.15,0,0,1-.29-2.3,23,23,0,0,1,7.11-1.22,10.09,10.09,0,0,1,6.79,2.1c1.64,1.39,2.45,3.62,2.45,6.69V68.88a34,34,0,0,1-3.55.88,24.18,24.18,0,0,1-4.73.42A19,19,0,0,1,163,69.8a8.41,8.41,0,0,1-3-1.25,6,6,0,0,1-2-2.26,7.53,7.53,0,0,1-.69-3.39,6.17,6.17,0,0,1,.86-3.36,6.52,6.52,0,0,1,2.22-2.18,9.86,9.86,0,0,1,3-1.17,15.81,15.81,0,0,1,3.34-.36c.81,0,1.7.05,2.68.13Zm0,4.3c-.34,0-.7-.1-1.09-.14a10.37,10.37,0,0,0-1-.06,6.12,6.12,0,0,0-3.24.73,2.55,2.55,0,0,0-1.2,2.36,2.68,2.68,0,0,0,.46,1.67,2.79,2.79,0,0,0,1.11.86,4.5,4.5,0,0,0,1.38.33,12.72,12.72,0,0,0,1.28.07,7.54,7.54,0,0,0,1.25-.11l1.09-.18Z"/><path d="M180.23,48.06a9.5,9.5,0,0,1,1.17-.19,12.77,12.77,0,0,1,1.3-.06,11.5,11.5,0,0,1,1.25.06,9.87,9.87,0,0,1,1.13.19,2.21,2.21,0,0,1,.23.6c.07.27.13.55.19.84l.15.86c0,.27.07.51.1.71a10,10,0,0,1,1-1.26,7.56,7.56,0,0,1,1.36-1.13,7.73,7.73,0,0,1,1.74-.81,6.8,6.8,0,0,1,2.13-.32,7.17,7.17,0,0,1,5.54,2c1.24,1.34,1.86,3.44,1.86,6.32v13.8a17.71,17.71,0,0,1-5.93,0V57.47a7.26,7.26,0,0,0-.69-3.48,2.57,2.57,0,0,0-2.41-1.21,5.42,5.42,0,0,0-1.46.21,3,3,0,0,0-1.36.82,4.35,4.35,0,0,0-1,1.69,8.93,8.93,0,0,0-.37,2.84V69.68a17.77,17.77,0,0,1-5.94,0Z"/><path d="M219.08,64.58a8.92,8.92,0,0,1,.84,1.94,9.2,9.2,0,0,1,.33,2.61,13,13,0,0,1-3.14.86,23,23,0,0,1-3.05.19,11.94,11.94,0,0,1-4.72-.86A9.11,9.11,0,0,1,206,67a10,10,0,0,1-2-3.58,14.42,14.42,0,0,1-.67-4.49,14.75,14.75,0,0,1,.64-4.44,10.37,10.37,0,0,1,2-3.59,9.23,9.23,0,0,1,3.28-2.43,11.17,11.17,0,0,1,4.56-.88c.61,0,1.18,0,1.69.05a11.72,11.72,0,0,1,1.49.16c.47.09.95.2,1.42.34s1,.32,1.59.54a10.3,10.3,0,0,1-.25,2.15,9.47,9.47,0,0,1-.79,2.28,15.13,15.13,0,0,0-2.2-.56,13.85,13.85,0,0,0-2.15-.15,4.64,4.64,0,0,0-3.91,1.7,7.71,7.71,0,0,0-1.32,4.83q0,3.39,1.42,4.93a5,5,0,0,0,3.85,1.55l1.15,0a8.6,8.6,0,0,0,1-.11,6.7,6.7,0,0,0,1-.25Z"/><path d="M232.75,70.18a11.26,11.26,0,0,1-4.57-.86A8.53,8.53,0,0,1,225,66.94,10.22,10.22,0,0,1,223,63.36a14.64,14.64,0,0,1-.65-4.43,15.16,15.16,0,0,1,.65-4.48A10.1,10.1,0,0,1,225,50.84a8.81,8.81,0,0,1,3.22-2.41,11.09,11.09,0,0,1,4.57-.88,11.27,11.27,0,0,1,4.6.88,9.17,9.17,0,0,1,3.27,2.41,9.93,9.93,0,0,1,1.92,3.61,15.5,15.5,0,0,1,.63,4.48,15,15,0,0,1-.63,4.43,10,10,0,0,1-1.92,3.58,8.87,8.87,0,0,1-3.27,2.38A11.44,11.44,0,0,1,232.75,70.18Zm0-4.52a3.62,3.62,0,0,0,3.37-1.73,10,10,0,0,0,1-5,10,10,0,0,0-1-5,3.6,3.6,0,0,0-3.37-1.73,3.55,3.55,0,0,0-3.32,1.73,10,10,0,0,0-1,5,10,10,0,0,0,1,5A3.57,3.57,0,0,0,232.75,65.66Z"/><path d="M247.64,48.06a11.66,11.66,0,0,1,1.19-.19,11.84,11.84,0,0,1,1.24-.06,8.47,8.47,0,0,1,1.23.08,11.84,11.84,0,0,1,1.19.21,2.21,2.21,0,0,1,.23.6c.07.27.13.55.19.84l.15.88c0,.29.07.54.1.73a10.78,10.78,0,0,1,2.26-2.32,5.35,5.35,0,0,1,3.34-1c.28,0,.6,0,1,0a4.28,4.28,0,0,1,.79.12,7.71,7.71,0,0,1,.13,1c0,.37,0,.74,0,1.13s0,1-.07,1.55a9.81,9.81,0,0,1-.23,1.59,5.28,5.28,0,0,0-1-.08h-.69a9.51,9.51,0,0,0-1.59.14,3.69,3.69,0,0,0-1.67.78,4.51,4.51,0,0,0-1.32,1.88,9.34,9.34,0,0,0-.52,3.51V69.72a15.16,15.16,0,0,1-1.51.17c-.5,0-1,0-1.46,0s-1,0-1.44,0-1-.09-1.53-.17Z"/><path d="M268.34,60.68a4.54,4.54,0,0,0,1.76,3.64,7,7,0,0,0,4.18,1.13,16.25,16.25,0,0,0,2.91-.27,16.68,16.68,0,0,0,2.82-.77,9.92,9.92,0,0,1,.79,2,10.06,10.06,0,0,1,.38,2.51,20.33,20.33,0,0,1-7.36,1.26,14.25,14.25,0,0,1-5.17-.84A9.25,9.25,0,0,1,265.14,67a9.54,9.54,0,0,1-2-3.53,14.88,14.88,0,0,1-.64-4.48,14.43,14.43,0,0,1,.67-4.47,10.26,10.26,0,0,1,2-3.64,9.5,9.5,0,0,1,3.26-2.45,10.72,10.72,0,0,1,4.54-.9,9.65,9.65,0,0,1,4,.8,8.92,8.92,0,0,1,3,2.17,9.24,9.24,0,0,1,1.86,3.29,13.14,13.14,0,0,1,.62,4.07c0,.53,0,1.06-.06,1.57a10.83,10.83,0,0,1-.15,1.23Zm8.49-4.14a5.35,5.35,0,0,0-1.11-3.24,3.52,3.52,0,0,0-2.86-1.23,4.12,4.12,0,0,0-3.18,1.17,5.47,5.47,0,0,0-1.3,3.3Z"/><path class="cls-2" d="M54,0l-.64.46C38,11.4,29.14,27.86,29,45.62S37.34,80,52.43,91.18l.63.47-.28-.74a126,126,0,0,1-7.61-45.16,126.39,126.39,0,0,1,8.52-45Z"/><path class="cls-3" d="M51.41,92.19A105.86,105.86,0,0,1,25.68,68a97.73,97.73,0,0,1-16-30.41l-.22-.71-.23.7a39.77,39.77,0,0,0,6.51,36.8C24,85.17,36.94,91.8,51.27,92.61l.87,0Z"/><path class="cls-4" d="M50.39,94A87.23,87.23,0,0,1,24,89.16,82.6,82.6,0,0,1,.62,76.83L0,76.35l.26.74C3.48,86.27,11,93.48,20.81,96.88A37,37,0,0,0,50.5,94.46l.76-.41Z"/><path class="cls-5" d="M50.88,96a60.77,60.77,0,0,1-17.71,7.39,65,65,0,0,1-15.54,2c-1.29,0-2.58,0-3.83-.13l-.86-.06.71.49A26.72,26.72,0,0,0,28.37,110a27.58,27.58,0,0,0,6.52-.8,24.2,24.2,0,0,0,16.32-13l.35-.72Z"/><path d="M81.12,80.46c.37-.06.83-.11,1.38-.16s1.13-.1,1.74-.14,1.24-.08,1.85-.1,1.18,0,1.68,0a19,19,0,0,1,6.56,1,11.46,11.46,0,0,1,7.33,7.58,20.49,20.49,0,0,1,.88,6.2q0,15-14.77,15c-.56,0-1.16,0-1.8,0s-1.26-.06-1.86-.1-1.17-.09-1.69-.16l-1.3-.18Zm2.76,26.43c.49.06,1.05.11,1.71.16s1.33.08,2,.08a19.25,19.25,0,0,0,5-.6,8.93,8.93,0,0,0,3.79-2,9.39,9.39,0,0,0,2.41-3.83,18.19,18.19,0,0,0,.84-6q0-6.23-3.19-9.13c-2.13-1.94-5.07-2.91-8.85-2.91-.61,0-1.27,0-2,0a14,14,0,0,0-1.75.16Z"/><path d="M109.16,99.47q0,4.09,1.88,6a7.62,7.62,0,0,0,5.66,1.93,14,14,0,0,0,2.83-.27,16.72,16.72,0,0,0,2.54-.7,4.54,4.54,0,0,1,.33,1.09,11.42,11.42,0,0,1,.16,1.16,11.91,11.91,0,0,1-2.73.8,19.05,19.05,0,0,1-3.41.28,12,12,0,0,1-4.56-.78,8.07,8.07,0,0,1-3.12-2.19,8.82,8.82,0,0,1-1.81-3.35,14.75,14.75,0,0,1-.58-4.27,15.81,15.81,0,0,1,.54-4.21,10.22,10.22,0,0,1,1.65-3.45,7.56,7.56,0,0,1,2.82-2.33,9.38,9.38,0,0,1,4.14-.84,9,9,0,0,1,3.57.68A7.31,7.31,0,0,1,121.69,91a8.08,8.08,0,0,1,1.61,2.93,12.18,12.18,0,0,1,.54,3.71c0,.24,0,.55,0,.92s0,.7-.06,1Zm12-2.2a9.21,9.21,0,0,0-.32-2.45,6.06,6.06,0,0,0-1-2.11,5.09,5.09,0,0,0-1.77-1.46,5.51,5.51,0,0,0-2.6-.56,5.61,5.61,0,0,0-4.38,1.72,8.29,8.29,0,0,0-1.88,4.86Z"/><path d="M128.49,88.84l.62-.06.59,0,.6,0,.6.06c0,.48.09,1.08.12,1.81s0,1.35,0,1.88a9.21,9.21,0,0,1,1-1.46,8.21,8.21,0,0,1,1.51-1.35,8,8,0,0,1,2-1,7.72,7.72,0,0,1,2.45-.38c2.35,0,4.07.7,5.14,2.11a9.62,9.62,0,0,1,1.6,5.91V109.3a4.68,4.68,0,0,1-.66.06l-.66,0-.64,0a4.88,4.88,0,0,1-.69-.06V97.19c0-2.28-.35-3.91-1.06-4.9a3.66,3.66,0,0,0-3.19-1.48,6.27,6.27,0,0,0-2.65.56A6,6,0,0,0,133.09,93a7.8,7.8,0,0,0-1.43,2.63,11.18,11.18,0,0,0-.52,3.57V109.3a4.68,4.68,0,0,1-.66.06l-.66,0-.65,0a4.86,4.86,0,0,1-.68-.06Z"/><path d="M151.2,91.09h-3.49a3.25,3.25,0,0,1-.06-.52c0-.22,0-.43,0-.65a5.82,5.82,0,0,1,0-.6,3.14,3.14,0,0,1,.06-.48h3.49V85l2.49-2.45h.16v6.3h5.53a3.14,3.14,0,0,1,.06.48,5.82,5.82,0,0,1,0,.6c0,.22,0,.43,0,.65a3.25,3.25,0,0,1-.06.52h-5.53v13.32a3.82,3.82,0,0,0,.26,1.58,2.19,2.19,0,0,0,1.64,1.33,6.74,6.74,0,0,0,1.11.1,7.2,7.2,0,0,0,2.44-.37,13.85,13.85,0,0,1,.4,2.25,11.34,11.34,0,0,1-3.37.44,5.53,5.53,0,0,1-3.71-1.22,5,5,0,0,1-1.42-4Z"/><path d="M174,95.78a5.25,5.25,0,0,0-1.24-3.87,5.08,5.08,0,0,0-3.69-1.22,17.65,17.65,0,0,0-2.93.22,19.33,19.33,0,0,0-2.36.54,3.78,3.78,0,0,1-.35-1,6.77,6.77,0,0,1-.14-1.29,18.35,18.35,0,0,1,2.57-.54,21.46,21.46,0,0,1,3.13-.22c2.6,0,4.52.57,5.78,1.7s1.88,2.93,1.88,5.36v13.52c-.93.19-2.07.37-3.41.56a26.94,26.94,0,0,1-3.81.28,10.21,10.21,0,0,1-5.88-1.48,5.44,5.44,0,0,1-2.14-4.82,6.43,6.43,0,0,1,.62-2.86,5.88,5.88,0,0,1,1.73-2.13,7.41,7.41,0,0,1,2.64-1.3,12.09,12.09,0,0,1,3.39-.45c1,0,1.8,0,2.49.1s1.27.13,1.72.19Zm0,3.57-1.7-.18c-.68-.06-1.33-.1-1.95-.1a8.28,8.28,0,0,0-4.65,1.12A3.65,3.65,0,0,0,164,103.4a3.91,3.91,0,0,0,.5,2.13,3.31,3.31,0,0,0,1.3,1.22,5.66,5.66,0,0,0,1.77.57,13.78,13.78,0,0,0,1.92.14,21.2,21.2,0,0,0,2.33-.12c.72-.08,1.43-.19,2.12-.33Z"/><path d="M182.13,79.82a6.39,6.39,0,0,1,.66-.07l.66,0,.64,0a6.27,6.27,0,0,1,.68.07v24.75a4.36,4.36,0,0,0,.25,1.62,1.86,1.86,0,0,0,.6.84,1.71,1.71,0,0,0,.8.33,5.93,5.93,0,0,0,.8.06,7.62,7.62,0,0,0,.93-.06,8.06,8.06,0,0,0,.8-.14,4.66,4.66,0,0,1,.28,1c.05.37.09.72.12,1a5.79,5.79,0,0,1-1.27.28,10.06,10.06,0,0,1-1.3.08,8,8,0,0,1-1.68-.18,3.78,3.78,0,0,1-1.51-.68,3.57,3.57,0,0,1-1.06-1.36,5.4,5.4,0,0,1-.4-2.27Z"/><path d="M219.52,106c.21.4.4.79.56,1.17a5.78,5.78,0,0,1,.36,1.16,13.05,13.05,0,0,1-3.25,1.06,19.59,19.59,0,0,1-4,.38,14.48,14.48,0,0,1-5.36-1,11.27,11.27,0,0,1-4.15-2.81,12.81,12.81,0,0,1-2.69-4.57,18.84,18.84,0,0,1-1-6.26,20.3,20.3,0,0,1,.94-6.44A13.76,13.76,0,0,1,203.65,84a11.15,11.15,0,0,1,4.13-3,13.92,13.92,0,0,1,5.44-1,20.61,20.61,0,0,1,4.21.36c1.12.24,1.94.44,2.45.6a8.44,8.44,0,0,1-.22,1.2q-.15.48-.42,1.17L218.17,83c-.36-.1-.77-.2-1.22-.28s-1-.14-1.59-.2-1.3-.08-2.1-.08a10,10,0,0,0-4.25.87,8.69,8.69,0,0,0-3.21,2.5,11.77,11.77,0,0,0-2.05,4,18.49,18.49,0,0,0-.72,5.38,16.43,16.43,0,0,0,.8,5.38,10.63,10.63,0,0,0,2.23,3.79,8.86,8.86,0,0,0,3.33,2.22,11.53,11.53,0,0,0,4.11.73,14.54,14.54,0,0,0,3.43-.37A10.38,10.38,0,0,0,219.52,106Z"/><path d="M231.83,109.78a9.21,9.21,0,0,1-4-.82,8,8,0,0,1-2.87-2.27,9.67,9.67,0,0,1-1.7-3.41,16.11,16.11,0,0,1,0-8.42,9.67,9.67,0,0,1,1.7-3.41,8.11,8.11,0,0,1,2.87-2.27,9.21,9.21,0,0,1,4-.82,9,9,0,0,1,4,.82,8,8,0,0,1,2.85,2.27,9.89,9.89,0,0,1,1.73,3.41,15.57,15.57,0,0,1,0,8.42,9.89,9.89,0,0,1-1.73,3.41,7.93,7.93,0,0,1-2.85,2.27A9,9,0,0,1,231.83,109.78Zm0-2.32a5.49,5.49,0,0,0,4.8-2.25,10.53,10.53,0,0,0,1.58-6.14,10.55,10.55,0,0,0-1.58-6.14,6.25,6.25,0,0,0-9.59,0,10.48,10.48,0,0,0-1.59,6.14,10.46,10.46,0,0,0,1.59,6.14A5.47,5.47,0,0,0,231.83,107.46Z"/><path d="M245.71,79.82a6.39,6.39,0,0,1,.66-.07l.67,0,.64,0a6.57,6.57,0,0,1,.68.07v24.75a4.39,4.39,0,0,0,.24,1.62,1.86,1.86,0,0,0,.6.84,1.7,1.7,0,0,0,.81.33,5.93,5.93,0,0,0,.8.06,7.47,7.47,0,0,0,.92-.06,7.56,7.56,0,0,0,.8-.14,3.79,3.79,0,0,1,.28,1c.06.37.1.72.12,1a5.57,5.57,0,0,1-1.26.28,10.16,10.16,0,0,1-1.3.08,8,8,0,0,1-1.69-.18,3.8,3.8,0,0,1-1.5-.68,3.59,3.59,0,0,1-1.07-1.36,5.56,5.56,0,0,1-.4-2.27Z"/><path d="M255.74,79.82a6.39,6.39,0,0,1,.66-.07l.67,0,.64,0a6.57,6.57,0,0,1,.68.07v24.75a4.39,4.39,0,0,0,.24,1.62,1.86,1.86,0,0,0,.6.84,1.71,1.71,0,0,0,.8.33,6.19,6.19,0,0,0,.81.06,7.47,7.47,0,0,0,.92-.06,7.56,7.56,0,0,0,.8-.14,4.18,4.18,0,0,1,.28,1c.06.37.1.72.12,1a5.57,5.57,0,0,1-1.26.28,10.16,10.16,0,0,1-1.3.08,8,8,0,0,1-1.69-.18,3.8,3.8,0,0,1-1.5-.68,3.59,3.59,0,0,1-1.07-1.36,5.56,5.56,0,0,1-.4-2.27Z"/><path d="M267.46,99.47c0,2.73.62,4.74,1.88,6s3.14,1.93,5.66,1.93a14,14,0,0,0,2.83-.27,17.38,17.38,0,0,0,2.54-.7,4.56,4.56,0,0,1,.32,1.09,11.63,11.63,0,0,1,.17,1.16,11.91,11.91,0,0,1-2.73.8,19.13,19.13,0,0,1-3.41.28,12,12,0,0,1-4.56-.78,8.19,8.19,0,0,1-3.13-2.19,8.94,8.94,0,0,1-1.8-3.35,14.75,14.75,0,0,1-.58-4.27,15.81,15.81,0,0,1,.54-4.21,10.4,10.4,0,0,1,1.64-3.45,7.67,7.67,0,0,1,2.83-2.33,9.36,9.36,0,0,1,4.13-.84,8.91,8.91,0,0,1,3.57.68A7.26,7.26,0,0,1,280,91a8.08,8.08,0,0,1,1.61,2.93,12.18,12.18,0,0,1,.54,3.71c0,.24,0,.55,0,.92s0,.7-.06,1Zm12-2.2a9.63,9.63,0,0,0-.32-2.45,6.06,6.06,0,0,0-1-2.11,5.18,5.18,0,0,0-1.77-1.46,5.53,5.53,0,0,0-2.61-.56,5.59,5.59,0,0,0-4.37,1.72,8.29,8.29,0,0,0-1.88,4.86Z"/><path d="M296.94,107.26q3.53.08,5,1.46a4.76,4.76,0,0,1,1.5,3.67,5.21,5.21,0,0,1-.8,2.83,7.07,7.07,0,0,1-2.25,2.16,11.91,11.91,0,0,1-3.43,1.41,19.2,19.2,0,0,1-7.62.22,8.71,8.71,0,0,1-2.61-.9,4.57,4.57,0,0,1-1.7-1.65,4.87,4.87,0,0,1-.61-2.5,5.4,5.4,0,0,1,.89-2.93,5.5,5.5,0,0,1,2.28-2.09,4.64,4.64,0,0,1-1.28-1.22,3.11,3.11,0,0,1-.52-1.83,4.44,4.44,0,0,1,.74-2.61,7.83,7.83,0,0,1,2-1.88A6.56,6.56,0,0,1,286.31,99a7,7,0,0,1-.84-3.53,7.59,7.59,0,0,1,.5-2.79,6.05,6.05,0,0,1,1.5-2.26,7.23,7.23,0,0,1,2.47-1.53,9.56,9.56,0,0,1,3.39-.56,9.42,9.42,0,0,1,2.93.42,8.73,8.73,0,0,1,2.25,1.1l1-.36a12.63,12.63,0,0,1,1.32-.34c.48-.09,1-.17,1.49-.24a12.54,12.54,0,0,1,1.48-.1,5,5,0,0,1,.16,1.33,5.18,5.18,0,0,1-.16,1.36H300a7.83,7.83,0,0,1,.86,1.86,7.22,7.22,0,0,1,.3,2.11,7.31,7.31,0,0,1-.6,3,6.36,6.36,0,0,1-1.66,2.23,7.54,7.54,0,0,1-2.49,1.38,9.54,9.54,0,0,1-3.07.48,9.14,9.14,0,0,1-3-.44,5.47,5.47,0,0,0-1.58,1.38,2.59,2.59,0,0,0-.46,1.51,2.37,2.37,0,0,0,.12.76,1.39,1.39,0,0,0,.5.66A2.91,2.91,0,0,0,290,107a7,7,0,0,0,1.77.19Zm-5.7,2.4a4,4,0,0,0-3,1.07,3.81,3.81,0,0,0-1.15,2.9,2.8,2.8,0,0,0,.44,1.61,3,3,0,0,0,1.23,1,6.28,6.28,0,0,0,1.82.5,15.6,15.6,0,0,0,2.21.14,11.3,11.3,0,0,0,5.82-1.26,3.58,3.58,0,0,0,2.08-3,2.35,2.35,0,0,0-1-2.17,7.17,7.17,0,0,0-3.41-.68Zm-3-14.16A5.18,5.18,0,0,0,289.5,99a4.79,4.79,0,0,0,3.83,1.43A4.84,4.84,0,0,0,297.18,99a5.55,5.55,0,0,0,0-7,4.84,4.84,0,0,0-3.85-1.42A4.78,4.78,0,0,0,289.5,92,5.18,5.18,0,0,0,288.28,95.5Z"/><path d="M308,99.47q0,4.09,1.89,6c1.26,1.28,3.14,1.93,5.66,1.93a14,14,0,0,0,2.83-.27,17.38,17.38,0,0,0,2.54-.7,4.56,4.56,0,0,1,.32,1.09,9.15,9.15,0,0,1,.16,1.16,11.67,11.67,0,0,1-2.72.8,19.13,19.13,0,0,1-3.41.28,12,12,0,0,1-4.56-.78,8.19,8.19,0,0,1-3.13-2.19,8.94,8.94,0,0,1-1.8-3.35,14.75,14.75,0,0,1-.58-4.27,15.81,15.81,0,0,1,.54-4.21,10.4,10.4,0,0,1,1.64-3.45,7.67,7.67,0,0,1,2.83-2.33,9.36,9.36,0,0,1,4.13-.84,8.91,8.91,0,0,1,3.57.68A7.26,7.26,0,0,1,320.55,91a8.23,8.23,0,0,1,1.61,2.93,12.18,12.18,0,0,1,.54,3.71c0,.24,0,.55,0,.92s0,.7-.06,1Zm12-2.2a9.63,9.63,0,0,0-.32-2.45,6.24,6.24,0,0,0-1-2.11A5.18,5.18,0,0,0,317,91.25a5.53,5.53,0,0,0-2.61-.56A5.59,5.59,0,0,0,310,92.41a8.29,8.29,0,0,0-1.88,4.86Z"/></g></g></g></svg>